M48
; DRILL file {KiCad (5.1.4-0-10_14)} date Sunday, November 10, 2019 at 05:55:21 pm
; FORMAT={-:-/ absolute / inch / decimal}
; #@! TF.CreationDate,2019-11-10T17:55:21-05:00
; #@! TF.GenerationSoftware,Kicad,Pcbnew,(5.1.4-0-10_14)
; #@! TF.FileFunction,Plated,1,2,PTH
FMAT,2
INCH
T1C0.0157
T2C0.0177
T3C0.0276
T4C0.0299
T5C0.0315
T6C0.0354
T7C0.0374
T8C0.0394
T9C0.0433
T10C0.0472
T11C0.0512
T12C0.0630
T13C0.0709
%
G90
G05
T1
X1.3151Y-5.5334
X1.3862Y-5.1899
X1.528Y-5.048
X1.994Y-7.271
X4.119Y-6.097
X4.119Y-6.471
X4.2594Y-5.4711
X4.442Y-6.426
X4.541Y-7.084
X5.1103Y-5.8035
X5.8039Y-5.7263
T2
X4.2968Y-5.1769
X4.2968Y-5.2438
X4.2968Y-5.3107
X3.9902Y-5.1746
X3.9902Y-5.2415
X3.9902Y-5.3084
T3
X3.369Y-5.52
X3.369Y-5.82
X4.9Y-6.34
X5.51Y-6.33
X5.81Y-6.33
X4.6Y-6.34
X1.758Y-5.508
X1.758Y-5.808
X5.82Y-5.06
X6.12Y-5.06
X4.056Y-5.4805
X4.356Y-5.4805
X3.711Y-5.515
X3.545Y-5.518
X3.545Y-5.818
X3.711Y-5.815
X1.1827Y-6.4442
X1.4827Y-6.4442
X4.056Y-5.5744
X4.356Y-5.5744
T4
X5.64Y-6.5998
X5.64Y-6.7399
X5.64Y-6.8801
X5.64Y-7.0202
T5
X5.0569Y-4.89
X4.2Y-4.89
X4.3969Y-4.89
X4.86Y-4.89
X3.5231Y-4.9
X3.72Y-4.9
T6
X3.023Y-5.678
X3.123Y-5.678
X2.0Y-5.68
X2.1Y-5.68
X2.35Y-5.68
X2.45Y-5.68
X5.29Y-6.07
X5.28Y-5.43
X5.38Y-5.43
X5.39Y-6.07
X2.699Y-5.68
X2.799Y-5.68
T7
X1.2878Y-7.4
X1.4846Y-7.4
X1.6815Y-7.4
X1.8783Y-7.4
X2.0752Y-7.4
X2.272Y-7.4
X2.4689Y-7.4
X2.6657Y-7.4
X2.8626Y-7.4
X3.0594Y-7.4
X3.2563Y-7.4
X3.4531Y-7.4
X3.65Y-7.4
X3.8469Y-7.4
X4.0437Y-7.4
X4.2406Y-7.4
X4.4374Y-7.4
X4.6343Y-7.4
X4.8311Y-7.4
X5.028Y-7.4
X5.2248Y-7.4
X5.4217Y-7.4
X5.6185Y-7.4
X5.8154Y-7.4
X6.0122Y-7.4
T8
X2.0Y-6.38
X2.0Y-6.48
X2.1Y-6.38
X2.1Y-6.48
X2.2Y-6.38
X2.2Y-6.48
X2.3Y-6.38
X2.3Y-6.48
X2.4Y-6.38
X2.4Y-6.48
X2.5Y-6.38
X2.5Y-6.48
X2.6Y-6.38
X2.6Y-6.48
X2.7Y-6.38
X2.7Y-6.48
X2.8Y-6.38
X2.8Y-6.48
X2.9Y-6.38
X2.9Y-6.48
X3.0Y-6.38
X3.0Y-6.48
X3.1Y-6.38
X3.1Y-6.48
X3.2Y-6.38
X3.2Y-6.48
X3.3Y-6.38
X3.3Y-6.48
X3.4Y-6.38
X3.4Y-6.48
X3.5Y-6.38
X3.5Y-6.48
X3.6Y-6.38
X3.6Y-6.48
X3.7Y-6.38
X3.7Y-6.48
X3.8Y-6.38
X3.8Y-6.48
X3.9Y-6.38
X3.9Y-6.48
T9
X5.08Y-7.04
X5.1469Y-7.04
X5.2139Y-7.04
X5.2808Y-7.04
X5.84Y-4.83
X5.9069Y-4.83
X5.9739Y-4.83
X6.0408Y-4.83
X6.1077Y-4.83
X5.3477Y-7.04
T10
X1.3136Y-4.9593
X1.3136Y-6.2191
T11
X1.2287Y-7.0364
X1.3272Y-6.6427
X1.4256Y-7.0364
X5.6238Y-5.4887
X5.6238Y-5.9691
X5.86Y-5.41
X6.0962Y-5.4887
X6.0962Y-5.9691
X4.5738Y-5.4887
X4.5738Y-5.9691
X4.81Y-5.41
X5.0462Y-5.4887
X5.0462Y-5.9691
T12
X4.367Y-6.529
X4.367Y-7.029
X1.73Y-6.76
X2.23Y-6.76
X1.752Y-4.702
X1.752Y-5.202
X6.08Y-6.53
X6.08Y-7.03
T13
X2.62Y-4.75
X2.62Y-5.25
T0
M30
